<?xml version="1.0" encoding="iso-8859-1"?>
<!-- Generator: Adobe Illustrator 16.0.0, SVG Export Plug-In . SVG Version: 6.00 Build 0)  -->
<!DOCTYPE svg PUBLIC "-//W3C//DTD SVG 1.1//EN" "http://www.w3.org/Graphics/SVG/1.1/DTD/svg11.dtd">
<svg version="1.1" id="Capa_1" xmlns="http://www.w3.org/2000/svg" xmlns:xlink="http://www.w3.org/1999/xlink" x="0px" y="0px"
	 width="417.076px" height="417.075px" viewBox="0 0 417.076 417.075" style="enable-background:new 0 0 417.076 417.075;"
	 xml:space="preserve">
<g>
	<g>
		<path d="M208.538,0C132.345,0,70.357,58.891,70.357,131.279c0,50.467,19.549,79.123,38.464,106.849
			c15.548,22.779,31.605,46.33,33,77.959h133.518c1.402-31.604,17.43-55.146,32.961-77.938
			c18.889-27.713,38.418-56.368,38.418-106.868C346.718,58.891,284.73,0,208.538,0z M275.246,215.622
			c-11.424,16.767-24.735,36.301-32.76,60.465H174.68c-8.032-24.188-21.372-43.733-32.816-60.502
			c-17.603-25.801-31.507-46.181-31.507-84.306c0-50.331,44.044-91.279,98.181-91.279s98.18,40.948,98.18,91.279
			C306.718,169.445,292.83,189.822,275.246,215.622z"/>
		<path d="M143.258,368.438c0,9.425,7.641,17.064,17.066,17.064h10.431c3.223,17.95,18.906,31.573,37.783,31.573
			c18.875,0,34.56-13.623,37.782-31.573h10.432c9.426,0,17.066-7.641,17.066-17.064v-28.795h-130.56V368.438z"/>
	</g>
</g>
<g>
</g>
<g>
</g>
<g>
</g>
<g>
</g>
<g>
</g>
<g>
</g>
<g>
</g>
<g>
</g>
<g>
</g>
<g>
</g>
<g>
</g>
<g>
</g>
<g>
</g>
<g>
</g>
<g>
</g>
</svg>
