<?xml version="1.0" encoding="iso-8859-1"?>
<!-- Generator: Adobe Illustrator 18.0.0, SVG Export Plug-In . SVG Version: 6.00 Build 0)  -->
<!DOCTYPE svg PUBLIC "-//W3C//DTD SVG 1.1//EN" "http://www.w3.org/Graphics/SVG/1.1/DTD/svg11.dtd">
<svg version="1.1" id="Capa_1" xmlns="http://www.w3.org/2000/svg" xmlns:xlink="http://www.w3.org/1999/xlink" x="0px" y="0px"
	 viewBox="0 0 30.04 30.04" style="enable-background:new 0 0 30.04 30.04;" xml:space="preserve">
<g>
	<g>
		<path d="M29.989,13.807C29.458,7.23,24.781,1.83,18.348,0.371c-1.483-0.337-3.013-0.445-4.543-0.321
			C9.807,0.374,6.174,2.235,3.576,5.291c-2.597,3.057-3.849,6.943-3.524,10.942c0.531,6.578,5.21,11.978,11.641,13.437
			c1.483,0.337,3.01,0.444,4.539,0.321c4.002-0.324,7.634-2.186,10.231-5.242C29.062,21.692,30.314,17.807,29.989,13.807z
			 M10.813,8.041c0.411-1.813,2.213-2.949,4.025-2.537c1.813,0.412,2.95,2.214,2.54,4.027c-0.413,1.813-2.215,2.949-4.027,2.538
			C11.538,11.657,10.403,9.854,10.813,8.041z M24.042,22.691c-2.048,2.41-4.914,3.879-8.067,4.135
			c-0.573,0.046-1.143,0.044-1.709,0.009c-2.54-0.52-4.545-2.637-4.766-5.354c-0.129-1.585,0.377-3.156,1.407-4.368
			c1.03-1.21,2.498-1.963,4.083-2.093l0.811-0.141c2.906-0.616,4.982-3.282,4.737-6.322c-0.221-2.704-2.212-4.816-4.737-5.352
			c0.62,0.039,1.237,0.124,1.843,0.262c5.072,1.15,8.761,5.408,9.181,10.596C27.08,17.218,26.093,20.282,24.042,22.691z"/>
	</g>
	<g>
		<circle cx="14.473" cy="21.299" r="3.365"/>
	</g>
</g>
<g>
</g>
<g>
</g>
<g>
</g>
<g>
</g>
<g>
</g>
<g>
</g>
<g>
</g>
<g>
</g>
<g>
</g>
<g>
</g>
<g>
</g>
<g>
</g>
<g>
</g>
<g>
</g>
<g>
</g>
</svg>
